<?xml version="1.0" encoding="utf-8"?>
<!-- Generator: Adobe Illustrator 22.0.1, SVG Export Plug-In . SVG Version: 6.00 Build 0)  -->
<svg version="1.1" id="Capa_1" xmlns="http://www.w3.org/2000/svg" xmlns:xlink="http://www.w3.org/1999/xlink" x="0px" y="0px"
	 viewBox="0 0 512 512" style="enable-background:new 0 0 512 512;" xml:space="preserve">
<style type="text/css">
	.st0{fill:#FFFFFF;}
	.st1{fill:#60A9FF;}
	.st2{font-family:'Arciform';}
	.st3{font-size:214px;}
</style>
<g>
	<path class="st0" d="M423.5,296.8l-1.1-1.2c-5-6.2-15.9-15-31.8-21l-2.5-0.8c-17.5-8.1-33.1-13.3-36.2-14.3
		c-3.5-1.2-6.4-2.4-8.8-3.4c-18.2-9-20.6-14.2-21-15.4l-0.9-2.1l0.8-2c13.6-17,23.2-36.8,26.9-55.5l0.6-1.3
		c3.8-4.8,6.2-10.4,7.1-16.5c4.3-15.7,4.5-27.1,0.7-35.1l-0.4-0.9l0.2-0.9c4.9-20.3,9.5-58.2-13.7-84.6
		c-3.7-4.6-17.9-20.4-45.6-28.5l-13.5-4.6c-22.6-7-36.6-8.5-38.5-8.5c-1.5,0-2.8,0.1-4.6,0.6l-1.8,0.3c-7.1-1.1-16,2.1-18.4,3
		c-7.8,3.3-47.4,21.6-59.9,60.3c-2.1,5.5-6.3,22.2-0.8,58.9l0.2,1.1l-0.7,0.9c-5.6,7.5-6.1,19.8-1.3,36.3c1.2,7.3,3.6,13.1,7.1,17.6
		l0.6,1.3c3.4,19.2,12,38.2,24.7,54.9l1.2,1.6l-1.1,1.6c-0.5,0.8-0.9,1.7-1,2.2c-3.2,9-38.4,24.7-69.2,34.2c-22.2,8.4-32,22-32,22.1
		C58,342.3,54.1,439.8,53.9,444c0.5,25.3,12,30.5,14.2,31.2l1.9,0.9c67.7,29.5,166.5,35.3,177.5,35.8l3.5,0.1c3.3,0,6.6-0.2,9.8-0.3
		l0.3,0l1,0.1c0.8,0.2,1.5,0.3,2.2,0.3h0h0.5c4.5-0.2,110.6-6.3,176.8-36c4.8-1.2,16-7,16.4-32.8
		C457.9,439.1,453.5,341.4,423.5,296.8z M200.9,250.7l1.8-1.7l1.8,1.7c16.2,15.3,34.2,23.7,50.5,23.7c17.2,0,34.9-7.5,51.2-21.6
		l1.4-1.2l3.6,1.7c3,2.8,8.5,6.8,10.9,8l3.4,1.6l-0.4,0.4l1.3,0.8c3.1,1.8,6.4,3.6,10.1,5.5c3.8,1.7,7.1,2.9,10.5,4.1
		c0.7,0.2,16.8,5.5,35.3,14l3.3,1c17.5,6.7,24.9,16.1,25.2,16.4c27.2,40.3,31.7,128.3,32.2,138.2c-0.2,13.8-4.1,17.3-5.2,18
		c-60.9,27.3-152.8,34.3-170.6,35.5l-0.5,0l-0.5-0.1c-0.6-0.2-1.2-0.3-2-0.3h0l-0.6,0c-4.9,0.3-8.9,0.5-12.7,0.5h-2.9
		c-11.1-0.6-110.3-7.2-173.7-35.4c-1.3-0.5-5-4.9-5.3-17.5c0-0.9,3.3-95.9,31.8-138.3c1.4-1.8,9.1-10.8,24.6-16.7
		c13.6-4.2,47.3-15.4,65.7-28.7c0.8-0.5,1.7-1.4,2.4-2.1C194.9,256.7,197.7,253.7,200.9,250.7z M172,134.1l0.6-0.7
		c2.5-1.8,3.7-4.6,3.2-7.5c-6.2-37.3-2.1-52.8-0.7-56.7c10.8-33.1,44.8-48.6,51.4-51.3c1.4-0.5,4-1.3,6.7-1.8l0.7-0.2l5.6-0.3l0,0.3
		l1.2-0.1c1.1-0.1,2.2-0.3,3.5-0.5l1.3-0.3c1,0,14.2,1.7,33.9,7.7l13.6,4.7c24.9,7.4,36.5,21.1,38.6,23.9
		c20,22.7,14.7,56.9,9.7,75.2c-0.6,2.1-0.2,4.3,1,6.1l1.1,1.4c1.8,2.4,2.5,10.6-1.6,25.7c-0.8,4.9-2.7,8.9-5.4,11.6
		c-0.9,1-1.6,2.5-1.9,4c-6.8,39.6-42.3,84-79.7,84c-31.8,0-68.1-40.8-74.6-83.9c-0.2-1.6-0.9-3-2-4.2c-2.7-2.8-4.4-6.9-5.5-12.9
		C169.8,147,169.5,137.9,172,134.1z"/>
</g>
<text transform="matrix(1 0 0 1 377.7312 248.9851)" class="st1 st2 st3">+</text>
</svg>
