<?xml version="1.0" encoding="utf-8"?>
<!-- Generator: Adobe Illustrator 22.0.1, SVG Export Plug-In . SVG Version: 6.00 Build 0)  -->
<svg version="1.1" id="Capa_1" xmlns="http://www.w3.org/2000/svg" xmlns:xlink="http://www.w3.org/1999/xlink" x="0px" y="0px"
	 viewBox="0 0 512 512" style="enable-background:new 0 0 512 512;" xml:space="preserve">
<style type="text/css">
	.st0{fill:#FFFFFF;}
</style>
<g>
	<g>
		<path class="st0" d="M139,444.4c-7.9,13.5-7.5,30.2,6.1,40.2c11.6,8.6,32.3,7.4,40.2-6.1c16.4-28,46.2-49.1,46.2-49.1
			s-11-24.1-16.1-69.4C215.3,360.1,157.7,412.6,139,444.4z"/>
		<path class="st0" d="M373.1,201c-33.7-30-69.8-56.9-109.3-78.5c-4.3-3.2-9.1-5.7-14.3-7.4c-3.4-1.4-6.8-2.1-10.1-2.2
			c-5.4-0.6-10.9-0.3-15.8,1c-13.1,3.5-22,11.6-27.1,21.8c-24.4,28.4-44.7,59.4-62.9,92c-18.1,32.4,31.5,61.4,49.7,29
			c5.7-10.1,11.5-20.1,17.6-29.9c5.3,35.4,10.5,70.8,15.7,106.2c1.1,7.2,4.5,13.4,9.2,18.4c7.6,50.4,21.6,100.1,43.7,145.9
			c16.1,33.4,65.7,4.2,49.7-29c-16.5-34.2-27.5-72-34.3-110.2c14.9-10.4,20.3-29.1,17.5-48c-5.2-35-10.4-69.9-15.6-104.9
			c15.7,11.3,30.9,23.5,45.5,36.5C360,266.2,400.8,225.7,373.1,201z"/>
		<circle class="st0" cx="235.1" cy="50.1" r="50.1"/>
	</g>
</g>
</svg>
