<?xml version="1.0" encoding="utf-8"?>
<!-- Generator: Adobe Illustrator 22.0.1, SVG Export Plug-In . SVG Version: 6.00 Build 0)  -->
<svg version="1.1" id="Capa_1" xmlns="http://www.w3.org/2000/svg" xmlns:xlink="http://www.w3.org/1999/xlink" x="0px" y="0px"
	 viewBox="0 0 512 512" style="enable-background:new 0 0 512 512;" xml:space="preserve">
<style type="text/css">
	.st0{fill:#373843;}
	.st1{fill:#60A9FF;}
</style>
<g>
	<g id="Layer_2_15_">
		<g>
			<path class="st0" d="M458.9,100C417.3,45.8,357,11.1,289.2,2.2c-67.1-8.8-133.7,8.9-187.6,49.7L82.1,32.3
				c-5.6-5.6-10.7-3.7-11.4,4.1l-6.4,69.9c-0.7,7.8,5.1,13.7,12.9,13l69.9-6.3c7.8-0.7,9.7-5.8,4.1-11.4l-20.2-20.3
				c44.4-31.8,98.4-45.4,152.8-38.3c56.9,7.4,107.5,36.6,142.4,82.1c35,45.5,50.1,101.9,42.7,158.8c-5.3,40.4-21.5,77.6-46.8,108.3
				c-10.3,12.5-22.1,24-35.3,34.1c-45.5,35-101.9,50.1-158.8,42.7c-56.9-7.4-107.5-36.6-142.4-82.1c-34.1-44.3-49.4-99.3-43.2-154.8
				c1.3-11.3-6.9-21.5-18.2-22.8c-11.3-1.3-21.5,6.9-22.7,18.2C-5.8,293.6,12.5,359.2,53,412c41.7,54.2,101.9,89,169.7,97.8
				c67.8,8.9,135-9.2,189.2-50.9c15.7-12.1,29.8-25.7,42.1-40.6c30.1-36.6,49.5-80.9,55.8-129.1C518.7,221.4,500.6,154.2,458.9,100z
				"/>
			<path class="st1" d="M245.9,89.4c-9.2,0-16.7,7.5-16.7,16.7v166.1l151.9,78.5c2.4,1.3,5.1,1.9,7.6,1.9c6,0,11.9-3.3,14.8-9
				c4.2-8.2,1-18.2-7.1-22.5l-133.8-69.2V106.1C262.6,96.8,255.2,89.4,245.9,89.4z"/>
		</g>
	</g>
</g>
</svg>
