<?xml version="1.0" encoding="utf-8"?>
<!-- Generator: Adobe Illustrator 22.0.1, SVG Export Plug-In . SVG Version: 6.00 Build 0)  -->
<svg version="1.1" id="Calque_1" xmlns="http://www.w3.org/2000/svg" xmlns:xlink="http://www.w3.org/1999/xlink" x="0px" y="0px"
	 viewBox="0 0 519.1 442.1" style="enable-background:new 0 0 519.1 442.1;" xml:space="preserve">
<style type="text/css">
	.st0{fill:#FFFFFF;}
	.st1{fill:#60A9FF;}
</style>
<title>home</title>
<path class="st0" d="M240.6,431.9c0,4.6,3.7,8.3,8.3,8.3c0,0,0,0,0,0h125.8c4.6,0,8.3-3.7,8.3-8.3c0,0,0,0,0,0V267.3
	c0-4.6-3.7-8.3-8.3-8.3c-4.6,0-8.3,3.7-8.3,8.3c0,0,0,0,0,0v156.2H257.3v-87.1c0-4.6-3.7-8.3-8.3-8.3c0,0,0,0,0,0h-81.8
	c-4.6,0-8.3,3.7-8.4,8.3c0,0,0,0,0,0v88.9H48.3V256c-0.2-4.6-4-8.2-8.6-8.1c-4.4,0.2-7.9,3.7-8.1,8.1v177.7c0,4.6,3.7,8.3,8.3,8.3
	c0,0,0,0,0,0h127.1c4.6,0,8.3-3.7,8.3-8.3c0,0,0,0,0,0v-88.9h65.1L240.6,431.9L240.6,431.9z"/>
<path class="st0" d="M411.6,230.9L211.9,69.1c-3-2.5-7.4-2.5-10.4-0.1L3.2,225.2c-3.7,2.8-4.4,8-1.6,11.7c2.8,3.7,8,4.4,11.7,1.6
	c0.1-0.1,0.2-0.1,0.2-0.2l193-152l194.5,157.6c1.5,1.2,3.4,1.8,5.3,1.9c2.5,0,4.9-1.1,6.5-3.1C415.7,239.1,415.2,233.8,411.6,230.9z
	"/>
<path class="st1" d="M511.7,181.4c-4,0-7.3-3.3-7.3-7.3c0,0,0,0,0,0c0-87.9-71.5-159.4-159.3-159.4c-4.1,0-7.4-3.3-7.4-7.3
	S341,0,345,0c96,0,174,78.1,174,174C519.1,178,515.8,181.3,511.7,181.4C511.7,181.4,511.7,181.4,511.7,181.4z"/>
<path class="st1" d="M465.4,181.4c-4.1,0-7.3-3.3-7.3-7.3c0,0,0,0,0,0C458,111.6,407.4,61,345,60.9c-4.1,0-7.3-3.3-7.3-7.3
	c0-4.1,3.3-7.3,7.3-7.3c70.5,0.1,127.7,57.2,127.8,127.8C472.8,178.1,469.5,181.4,465.4,181.4C465.5,181.4,465.5,181.4,465.4,181.4z
	"/>
<path class="st1" d="M414,181.4c-4.1,0-7.3-3.3-7.3-7.3c0,0,0,0,0,0c0-34-27.6-61.6-61.7-61.7c-4.1-0.1-7.2-3.6-7.1-7.6
	c0.1-3.8,3.2-6.9,7.1-7.1c42.2,0,76.3,34.2,76.4,76.4C421.4,178.1,418.1,181.4,414,181.4C414.1,181.4,414,181.4,414,181.4z"/>
</svg>
