<svg id="Capa_1" data-name="Capa 1" xmlns="http://www.w3.org/2000/svg" viewBox="0 0 512 445.17"><defs><style>.cls-1{fill:#fff;}.cls-2{fill:#60a9ff;}</style></defs><title>newspaper</title><path class="cls-1" d="M349.67,48h54.55a7.7,7.7,0,0,1,7.69,7.69V428.54A49.9,49.9,0,0,0,426.69,464H49.82a35.28,35.28,0,0,1-35.25-35.24V55.68A7.7,7.7,0,0,1,22.26,48H349.67ZM304.42,33.41H22.26A22.29,22.29,0,0,0,0,55.68V428.77a49.88,49.88,0,0,0,49.82,49.82H462a50.1,50.1,0,0,0,50-50V183.05a22.29,22.29,0,0,0-22.26-22.26H426.48V55.68a22.29,22.29,0,0,0-22.26-22.27h-99.8ZM462,464a35.51,35.51,0,0,1-35.47-35.47v-5.06H462a7.29,7.29,0,1,0,0-14.57H426.48V353.12H462a7.29,7.29,0,1,0,0-14.57H426.48V282.77H462a7.29,7.29,0,1,0,0-14.58H426.48V175.36h63.26a7.7,7.7,0,0,1,7.69,7.69V428.54h0A35.52,35.52,0,0,1,462,464Z" transform="translate(0 -33.41)"/><path class="cls-2" d="M215.56,89.12H73.1a19.53,19.53,0,0,0-19.5,19.51v95a19.53,19.53,0,0,0,19.5,19.5H215.56a19.53,19.53,0,0,0,19.51-19.5v-95A19.53,19.53,0,0,0,215.56,89.12Zm4.93,114.46a4.94,4.94,0,0,1-4.93,4.93H73.1a4.94,4.94,0,0,1-4.93-4.93v-95a4.93,4.93,0,0,1,4.93-4.93H215.56a4.93,4.93,0,0,1,4.93,4.93v95Z" transform="translate(0 -33.41)"/><path class="cls-1" d="M367,119H272.27a7.29,7.29,0,1,0,0,14.57H367A7.29,7.29,0,0,0,367,119Z" transform="translate(0 -33.41)"/><path class="cls-2" d="M367,178.66H272.27a7.29,7.29,0,1,0,0,14.57H367a7.29,7.29,0,0,0,0-14.57Z" transform="translate(0 -33.41)"/><path class="cls-1" d="M155.71,282.77H367a7.29,7.29,0,0,0,0-14.57H155.71" transform="translate(0 -33.41)"/><path class="cls-1" d="M155.71,268.2H66.31a7.29,7.29,0,1,0,0,14.57h89.4" transform="translate(0 -33.41)"/><path class="cls-2" d="M367,338.55H66.31a7.29,7.29,0,0,0,0,14.58H367a7.29,7.29,0,0,0,0-14.58Z" transform="translate(0 -33.41)"/><path class="cls-1" d="M367,408.91H66.31a7.29,7.29,0,1,0,0,14.57H367a7.29,7.29,0,0,0,0-14.57Z" transform="translate(0 -33.41)"/></svg>