<?xml version="1.0" encoding="iso-8859-1"?>
<!-- Generator: Adobe Illustrator 16.0.0, SVG Export Plug-In . SVG Version: 6.00 Build 0)  -->
<!DOCTYPE svg PUBLIC "-//W3C//DTD SVG 1.1//EN" "http://www.w3.org/Graphics/SVG/1.1/DTD/svg11.dtd">
<svg xmlns="http://www.w3.org/2000/svg" xmlns:xlink="http://www.w3.org/1999/xlink" version="1.1" id="Capa_1" x="0px" y="0px" width="512px" height="512px" viewBox="0 0 121.562 121.562" style="enable-background:new 0 0 121.562 121.562;" xml:space="preserve">
<g>
	<g>
		<path d="M116.808,56.966v-2.497h-6v2.497v10.002c-0.75-1.632-2.389-2.771-4.303-2.771h-13.8H74.836h-4.107v0.611    c0,0.111-0.002,0.223-0.008,0.335c2.252,1.837,5.031,4.728,6.453,8.548h4.115h5.408h19.809c1.914,0,3.553-1.14,4.303-2.771v4.523    H86.15h-4.314h-4.121c0.361,1.514,0.502,3.151,0.316,4.912c-0.037,0.338-0.078,0.705-0.125,1.088h4.137h3.895h24.871v15.834    h10.754V56.966H116.808z M74.836,64.819c0,0.024-0.002,0.049-0.002,0.073c-0.396-0.024-0.629-0.049-0.629-0.073l0.631-0.021    V64.819z" fill="#FFFFFF"/>
		<path d="M15.056,73.69h24.203c1.357-3.63,3.926-6.406,6.027-8.197c-0.018-0.232-0.025-0.461-0.025-0.686v-0.611H33.556    c-20.414,0-22.053,1.14-22.805,2.771V56.966v-2.497h-6v2.497H0v40.312h10.752V81.444H38.52c-0.045-0.384-0.088-0.752-0.123-1.088    c-0.186-1.761-0.045-3.398,0.318-4.912H10.752v-4.523C11.504,72.552,13.142,73.69,15.056,73.69z" fill="#FFFFFF"/>
		<path d="M64.482,78.931c0.069-0.666-0.73-1.969-2.618-3.408c-2.418,0.686-4.99,0.713-7.41,0.092    c-1.811,1.412-2.578,2.676-2.512,3.316c0.076,0.712,0.184,1.564,0.313,2.514H64.17C64.301,80.497,64.408,79.643,64.482,78.931z" fill="#FFFFFF"/>
		<path d="M16,61.778h9.5c1.748,0,3.166-1.418,3.166-3.167c0-1.749-1.418-3.167-3.166-3.167H16c-1.75,0-3.168,1.418-3.168,3.167    C12.832,60.36,14.25,61.778,16,61.778z" fill="#FFFFFF"/>
		<circle cx="57.994" cy="21.449" r="10.487" fill="#FFFFFF"/>
		<path d="M68.627,66.045c0.061-0.402,0.102-0.813,0.102-1.236V41.714L94.52,22.651c1.809-1.337,2.191-3.885,0.854-5.694    c-1.336-1.808-3.887-2.189-5.692-0.854l-24.88,18.389c-1.26-0.915-2.709-1.583-4.195-1.946l-2.611,2.629l-2.533-2.658    c-0.008,0.002-0.018,0.002-0.025,0.004c-1.279,0.306-2.535,0.838-3.666,1.561l-24.326-17.98c-1.809-1.336-4.357-0.954-5.693,0.854    c-1.336,1.81-0.955,4.357,0.854,5.694l24.695,18.254c-0.023,0.248-0.039,0.499-0.039,0.756v23.148c0,0.529,0.061,1.037,0.152,1.53    c-3.848,2.998-7.662,7.792-7.029,13.81c0.752,7.135,4.176,25.727,4.322,26.514c0.428,2.318,2.451,3.939,4.727,3.939    c0.289,0,0.582-0.025,0.877-0.08c2.613-0.482,4.342-2.992,3.859-5.604c-0.035-0.19-3.502-19.012-4.215-25.776    c-0.232-2.217,2.268-4.442,4.117-5.724c1.24,0.419,2.572,0.645,3.922,0.645c1.459,0,2.893-0.268,4.217-0.753    c1.842,1.248,4.502,3.546,4.26,5.832c-0.711,6.767-4.18,25.586-4.215,25.776c-0.48,2.611,1.246,5.121,3.859,5.604    c0.295,0.055,0.588,0.08,0.879,0.08c2.274,0,4.299-1.621,4.727-3.939c0.145-0.787,3.57-19.379,4.32-26.514    C76.695,73.929,72.601,69.017,68.627,66.045z" fill="#FFFFFF"/>
	</g>
</g>
<g>
</g>
<g>
</g>
<g>
</g>
<g>
</g>
<g>
</g>
<g>
</g>
<g>
</g>
<g>
</g>
<g>
</g>
<g>
</g>
<g>
</g>
<g>
</g>
<g>
</g>
<g>
</g>
<g>
</g>
</svg>
